<?xml version="1.0" standalone="no"?>
<!DOCTYPE svg PUBLIC "-//W3C//DTD SVG 20010904//EN"
 "http://www.w3.org/TR/2001/REC-SVG-20010904/DTD/svg10.dtd">
<svg version="1.0" xmlns="http://www.w3.org/2000/svg"
 width="512.000000pt" height="512.000000pt" viewBox="0 0 512.000000 512.000000"
 preserveAspectRatio="xMidYMid meet">
<metadata>
Created by potrace 1.14, written by Peter Selinger 2001-2017
</metadata>
<g transform="translate(0.000000,512.000000) scale(0.100000,-0.100000)"
fill="#000000" stroke="none">
<path d="M2300 5089 c-475 -48 -958 -248 -1340 -556 -109 -87 -286 -264 -373
-373 -819 -1019 -743 -2474 178 -3395 994 -994 2596 -994 3590 0 994 994 994
2596 0 3590 -417 417 -964 677 -1549 734 -126 13 -381 12 -506 0z m608 -44
c453 -66 880 -251 1227 -532 120 -97 316 -296 407 -413 264 -341 436 -749 505
-1197 23 -150 23 -536 0 -686 -42 -273 -114 -511 -226 -742 -126 -260 -259
-451 -461 -659 -217 -223 -421 -371 -695 -506 -246 -121 -478 -193 -762 -237
-150 -23 -536 -23 -686 0 -284 44 -516 116 -762 237 -276 135 -476 281 -695
506 -376 387 -602 849 -687 1401 -23 150 -23 536 0 686 69 448 241 856 505
1197 91 117 287 316 407 413 357 288 823 486 1265 536 52 6 111 13 130 15 73
9 429 -4 528 -19z"/>
<path d="M917 2533 c184 -560 365 -1110 402 -1223 l67 -205 308 0 308 0 274
814 c151 448 276 816 277 818 2 1 123 -365 269 -815 l265 -817 310 -3 309 -2
272 832 c150 458 330 1010 401 1226 l129 392 -276 -2 -277 -3 -280 -852 c-154
-469 -282 -853 -285 -853 -3 0 -129 385 -280 855 l-275 855 -266 0 -267 0
-142 -422 c-78 -233 -205 -612 -282 -843 -77 -231 -143 -423 -147 -427 -4 -4
-103 293 -221 660 -117 367 -240 749 -272 850 l-59 182 -298 0 -298 0 334
-1017z"/>
</g>
</svg>
